<?xml version="1.0" standalone="no"?>
<!DOCTYPE svg PUBLIC "-//W3C//DTD SVG 20010904//EN"
 "http://www.w3.org/TR/2001/REC-SVG-20010904/DTD/svg10.dtd">
<svg version="1.0" xmlns="http://www.w3.org/2000/svg"
 width="994.000000pt" height="994.000000pt" viewBox="0 0 994.000000 994.000000"
 preserveAspectRatio="xMidYMid meet">
<metadata>
Created by potrace 1.14, written by Peter Selinger 2001-2017
</metadata>
<g transform="translate(0.000000,994.000000) scale(0.100000,-0.100000)"
fill="#000000" stroke="none">
<path d="M795 8980 c-17 -19 -18 -55 -18 -600 0 -443 3 -584 12 -593 9 -9 184
-13 724 -17 l712 -5 0 -470 0 -470 -35 -36 c-140 -145 -354 -396 -481 -564
-328 -436 -517 -812 -559 -1115 -16 -114 -18 -129 -25 -215 -4 -44 -8 -96 -10
-115 -19 -188 -28 -1534 -12 -1780 4 -52 9 -160 12 -240 5 -150 13 -311 19
-390 2 -25 7 -94 11 -155 4 -60 8 -126 10 -145 2 -19 6 -87 10 -150 3 -63 9
-123 11 -133 5 -16 21 -17 200 -13 l194 5 1 -72 c1 -40 3 -81 4 -92 1 -11 5
-54 9 -95 6 -71 8 -89 21 -150 3 -14 7 -42 10 -62 13 -80 73 -256 99 -288 6
-8 18 -27 25 -42 25 -48 111 -147 174 -198 83 -67 202 -125 318 -154 165 -42
261 -51 524 -51 221 0 371 9 510 30 22 4 54 9 70 11 28 4 215 37 280 50 17 3
41 12 54 21 25 16 25 33 7 228 -2 22 -2 34 1 28 2 -7 9 -13 14 -13 6 0 8 4 5
9 -4 5 5 4 18 -2 13 -7 22 -15 20 -19 -3 -5 0 -8 5 -8 21 0 26 -2 40 -13 12
-10 14 -9 8 6 -8 22 -5 22 24 -4 13 -11 31 -18 41 -16 10 3 16 1 12 -4 -3 -5
1 -9 10 -9 8 0 17 6 20 13 3 6 4 3 1 -9 -4 -18 0 -20 37 -23 23 -1 47 -6 53
-11 5 -4 22 -7 38 -5 15 2 34 -3 42 -12 18 -18 65 -25 65 -10 0 6 6 2 14 -8
12 -17 16 -18 32 -5 16 14 17 13 10 -4 -7 -19 -6 -19 13 -2 14 13 21 14 27 5
5 -8 3 -10 -6 -4 -9 6 -11 4 -6 -4 6 -9 13 -8 29 6 11 10 18 13 14 7 -4 -6 3
-20 16 -30 12 -10 16 -12 10 -4 -7 8 -13 17 -13 21 0 9 27 5 37 -6 4 -4 2 -5
-4 -1 -7 4 -13 5 -13 2 0 -3 10 -10 21 -17 12 -6 19 -7 15 -1 -3 5 1 13 10 16
12 5 15 2 10 -10 -5 -14 -4 -15 8 -5 11 9 17 8 29 -3 11 -11 17 -12 26 -3 8 8
11 8 11 -3 0 -7 3 -10 7 -7 3 4 12 2 20 -5 10 -8 12 -8 8 3 -4 10 1 15 15 15
14 0 19 -5 15 -15 -5 -12 -3 -12 11 0 18 15 47 22 39 9 -3 -4 2 -11 11 -14 8
-3 12 -11 8 -17 -4 -8 -3 -9 5 -5 6 4 9 11 6 15 -7 12 39 8 47 -4 5 -6 8 -4 8
5 0 13 1 13 10 0 9 -13 10 -13 10 0 0 13 1 13 10 0 9 -13 11 -13 20 0 5 8 10
10 10 4 0 -7 7 -14 15 -18 13 -5 14 -2 4 17 -11 20 -11 21 5 7 26 -20 46 -21
39 -2 -4 13 -2 13 9 -2 10 -13 17 -15 22 -7 5 8 13 8 28 0 15 -8 19 -8 14 0
-4 6 -2 11 3 11 6 0 11 -6 11 -12 0 -9 4 -8 10 2 8 13 10 12 10 -4 0 -20 0
-20 15 0 12 15 16 16 24 5 7 -11 9 -11 14 0 5 12 6 12 6 0 1 -11 4 -11 17 0
13 10 17 10 24 0 5 -9 10 -10 14 -2 4 6 22 11 39 11 24 0 28 3 17 10 -9 6 -10
10 -3 10 6 0 15 -5 18 -10 4 -6 11 -8 16 -5 17 11 50 14 44 4 -8 -12 2 -12 27
2 15 8 19 8 14 0 -8 -12 6 -15 18 -4 11 11 50 11 65 -1 12 -9 12 -7 1 14 -12
23 -12 24 3 11 14 -11 17 -11 17 0 0 11 2 12 9 1 4 -7 14 -14 22 -15 8 -2 21
-6 29 -11 12 -7 13 -6 3 5 -17 17 -16 32 1 26 7 -3 19 0 26 6 10 9 11 9 6 -3
-4 -8 0 -6 8 4 9 11 16 15 16 9 0 -6 9 -13 20 -16 13 -3 18 -1 13 6 -4 7 0 8
11 4 14 -6 17 -3 12 8 -4 11 -2 14 7 8 17 -11 38 -13 32 -3 -3 5 -1 11 5 15 5
3 10 -1 10 -10 0 -9 5 -13 10 -10 6 4 7 12 3 18 -4 7 2 5 12 -3 17 -13 18 -13
13 0 -5 12 2 15 35 11 31 -3 38 -1 31 10 -6 10 -3 10 11 -1 10 -8 16 -10 12
-3 -4 6 -3 14 3 18 5 3 10 -2 11 -12 0 -15 2 -15 7 -3 4 9 20 15 40 15 17 0
32 3 32 8 0 4 -5 7 -12 7 -6 0 -8 3 -5 6 4 4 14 1 24 -7 9 -8 14 -9 10 -3 -4
7 0 15 9 18 8 3 12 2 9 -4 -3 -6 1 -7 9 -4 9 3 13 11 9 18 -4 6 1 5 10 -3 15
-12 17 -11 17 4 0 14 3 15 14 6 11 -9 16 -9 22 0 5 8 3 9 -6 4 -9 -6 -11 -4
-5 5 6 10 10 10 20 -3 10 -14 13 -13 25 6 12 21 12 21 -6 7 -17 -14 -18 -13
-7 1 7 9 23 15 35 14 13 -1 29 6 36 17 7 10 18 18 24 18 7 0 4 -6 -6 -13 -17
-13 -18 -14 -2 -20 9 -4 14 -3 11 2 -3 5 4 12 15 16 11 4 18 11 15 16 -3 5 2
6 11 2 13 -5 15 -3 9 8 -6 11 -5 12 5 2 18 -17 51 2 44 25 -4 10 -2 13 3 7 12
-14 33 -17 33 -4 0 5 5 7 10 4 6 -3 10 -1 10 4 0 6 12 11 26 11 19 0 25 4 21
15 -5 11 -1 12 19 5 19 -8 26 -6 36 10 7 11 16 20 21 20 4 0 5 -5 1 -12 -4 -7
-3 -8 5 -4 6 4 9 12 6 17 -4 5 3 9 15 9 13 0 19 4 14 12 -4 7 -3 8 5 4 6 -4
14 0 17 8 3 9 10 16 16 16 5 0 6 -5 2 -12 -4 -7 -3 -8 4 -4 7 4 12 15 12 24 0
14 2 14 9 3 7 -11 11 -9 20 8 7 12 16 19 22 15 14 -8 40 16 32 30 -4 6 1 5 10
-3 14 -11 18 -11 23 3 3 9 10 16 16 16 5 0 6 -6 3 -12 -4 -7 0 -5 9 6 8 10 19
15 25 11 7 -4 8 0 4 11 -5 14 -3 16 11 11 11 -4 15 -3 10 4 -4 7 1 9 17 5 13
-3 18 -3 12 0 -7 3 -13 10 -13 15 0 6 4 8 9 5 5 -3 12 1 15 10 4 9 13 14 21
10 10 -3 15 1 15 12 0 15 2 15 10 2 8 -13 10 -12 10 3 0 10 4 16 10 12 12 -7
80 36 80 52 0 6 5 15 12 19 7 4 8 3 4 -4 -4 -7 -2 -12 3 -12 6 0 11 5 11 11 0
5 5 7 12 3 7 -5 9 -2 5 9 -4 12 -1 15 14 12 18 -4 19 -2 8 11 -10 12 -10 15 2
12 8 -2 13 3 11 12 -2 8 0 12 4 8 4 -4 14 -2 23 4 12 10 12 8 -1 -8 -24 -28
-23 -39 2 -14 11 11 20 25 20 30 0 10 15 14 35 10 6 -1 7 1 3 5 -8 9 17 37 29
33 4 -2 9 2 11 7 2 6 10 17 18 26 8 9 11 19 7 24 -5 4 3 2 16 -5 19 -10 22
-10 16 1 -6 9 -3 11 8 6 10 -4 16 -2 14 6 -1 7 4 11 12 9 12 -3 12 0 2 12 -10
12 -8 14 12 12 19 -2 23 1 20 15 -3 11 2 19 16 24 13 4 18 11 14 18 -4 7 2 5
12 -3 10 -8 16 -10 12 -4 -4 7 4 19 19 29 20 13 23 19 14 30 -9 11 -7 12 12 8
19 -4 20 -3 8 7 -12 10 -11 11 8 7 13 -3 21 -3 18 0 -3 4 2 16 11 27 l18 21
-25 -20 -25 -20 19 22 c16 19 22 21 35 11 9 -7 13 -8 8 -3 -4 4 0 16 9 26 9
10 14 25 10 34 -3 9 -2 13 4 10 6 -3 10 2 10 12 0 15 2 16 10 3 9 -13 10 -13
11 0 1 8 1 19 0 24 -1 5 5 4 13 -3 12 -10 14 -8 12 12 -2 20 1 23 20 21 21 -2
22 0 13 18 -8 15 -8 19 0 14 6 -4 11 -2 11 4 0 6 5 8 12 4 7 -5 9 -2 5 9 -3 9
1 18 10 21 8 4 13 13 9 21 -4 13 -2 13 14 5 16 -8 18 -8 14 4 -3 8 0 17 7 22
8 5 10 3 4 -6 -5 -8 -4 -11 3 -6 6 4 9 13 6 21 -4 8 1 17 9 21 9 3 23 17 32
31 10 15 12 22 4 18 -8 -6 -10 -4 -5 4 5 7 15 10 23 6 14 -5 14 -3 2 12 -9 11
-10 14 -1 9 7 -4 12 -2 12 4 0 6 5 8 13 4 7 -5 6 0 -3 11 -12 15 -12 17 -1 10
11 -6 13 -4 8 9 -4 10 -3 15 3 11 6 -3 10 -1 10 5 0 6 5 8 10 5 7 -4 9 3 6 20
-4 22 -3 25 10 15 12 -10 15 -7 20 18 3 16 16 35 28 41 11 6 13 9 4 7 -11 -3
-15 0 -12 8 3 8 14 12 27 9 22 -5 22 -5 2 11 -11 10 -14 14 -6 10 11 -5 13 -3
8 9 -7 20 8 23 17 5 4 -7 4 -3 2 9 -3 16 1 23 11 23 10 0 13 6 9 16 -3 8 -2
13 3 10 13 -8 52 39 46 56 -3 8 1 21 10 28 12 10 15 10 15 0 0 -8 3 -11 6 -8
3 4 1 15 -4 25 -7 13 -6 22 3 30 7 6 15 9 18 6 3 -3 3 4 0 16 -3 14 0 23 11
27 9 3 13 10 10 15 -8 14 16 40 29 32 6 -3 7 -1 3 5 -4 6 -14 8 -24 5 -13 -4
-13 -2 3 10 11 8 23 14 26 11 3 -2 5 8 3 21 -1 14 2 23 7 19 5 -3 10 2 10 10
1 9 3 21 4 26 1 6 3 15 4 21 0 5 6 7 12 3 7 -4 7 1 -1 16 -8 15 -8 20 -1 16
13 -8 32 33 23 49 -3 6 1 4 10 -3 13 -10 18 -10 24 -1 5 8 3 9 -6 4 -10 -6
-12 -4 -7 9 4 9 3 14 -2 11 -5 -3 -13 0 -17 6 -4 8 -3 9 5 5 6 -4 14 0 17 8 3
9 14 16 23 16 13 0 13 2 2 9 -8 5 -9 11 -3 15 6 4 9 15 7 26 -2 12 1 17 9 14
7 -3 13 2 13 10 0 8 -4 13 -8 10 -4 -2 -11 0 -14 6 -4 6 -3 10 2 9 22 -4 32 2
27 16 -4 8 -11 12 -17 8 -6 -3 -7 -1 -3 6 4 6 12 8 18 5 6 -4 9 -1 6 6 -2 8 5
23 16 34 13 13 16 21 8 24 -7 2 -12 8 -12 13 0 6 5 7 11 3 8 -5 10 1 7 19 -3
16 -1 24 5 20 5 -3 7 0 5 8 -3 8 2 19 11 26 14 11 14 12 -4 13 l-20 1 20 9
c11 5 14 9 8 9 -7 1 -13 5 -13 11 0 5 8 6 18 3 14 -6 15 -4 4 9 -10 13 -10 18
-1 24 8 5 9 3 4 -7 -8 -12 -6 -12 8 0 18 14 23 26 8 16 -5 -3 -12 -1 -16 5 -3
5 2 10 12 10 14 0 15 2 5 9 -11 6 -10 10 4 15 13 5 14 10 6 18 -8 8 -8 17 0
32 17 30 18 48 5 65 -10 12 -9 13 2 6 11 -6 13 -4 8 8 -4 10 -2 17 4 17 6 0 9
7 6 15 -4 8 -2 17 3 20 6 4 10 11 10 16 0 6 -4 7 -10 4 -6 -3 -7 1 -4 9 3 9
11 13 16 10 6 -4 5 3 -1 15 -10 17 -9 20 4 15 8 -4 15 -1 15 5 0 6 -6 11 -12
11 -9 0 -8 4 2 10 13 9 13 10 0 10 -13 0 -13 2 -1 9 11 7 10 10 -5 14 -15 4
-14 5 5 6 24 1 24 1 5 16 -17 13 -17 14 -2 15 9 0 20 5 24 12 4 7 3 8 -4 4 -7
-4 -12 -3 -12 3 0 5 4 12 10 16 5 3 7 12 3 20 -3 9 1 15 8 15 9 1 8 4 -3 11
-10 5 -18 15 -18 20 0 6 4 7 10 4 6 -3 10 -1 10 4 0 6 -6 11 -12 11 -9 0 -8 4
2 10 12 8 12 10 -5 10 -16 0 -17 2 -5 9 8 6 18 7 24 4 5 -4 6 -1 1 8 -15 23
-13 49 4 49 13 0 14 2 2 9 -9 6 -11 15 -6 27 11 27 12 47 1 62 -5 8 -4 12 5
12 12 0 12 2 0 9 -11 7 -10 11 5 21 15 9 15 10 2 6 -9 -2 -19 2 -22 10 -4 10
-2 12 6 8 7 -5 9 -2 5 9 -3 9 -1 18 6 21 9 3 9 5 0 5 -7 1 -13 6 -13 12 0 5 4
8 9 5 13 -8 8 19 -7 37 -9 10 -9 17 -3 21 7 5 7 15 1 32 -7 19 -7 23 2 18 8
-5 9 -2 5 9 -3 10 -2 17 3 17 6 0 10 5 10 11 0 5 -4 7 -10 4 -14 -9 -13 8 2
23 7 7 8 12 4 12 -5 0 -3 6 3 13 8 10 7 14 -4 14 -8 0 -11 -5 -8 -10 3 -6 1
-7 -6 -3 -9 6 -9 11 0 22 6 8 8 14 5 14 -4 0 -2 9 4 19 7 14 7 22 -1 27 -8 4
-7 9 2 15 12 7 12 9 0 9 -11 0 -11 3 -1 15 7 9 8 15 2 15 -5 0 -12 7 -15 14
-4 11 -1 13 11 9 14 -6 15 -4 4 9 -10 13 -10 17 0 21 10 4 10 6 1 6 -7 1 -13
10 -13 21 0 11 -6 20 -12 20 -9 0 -8 4 2 10 8 5 10 10 4 10 -7 0 -15 7 -18 16
-5 13 -3 14 6 6 10 -8 13 -4 14 14 1 13 -3 24 -10 24 -7 0 -7 3 -1 8 6 4 11
13 13 21 3 12 1 12 -13 1 -14 -12 -15 -10 -5 14 13 34 12 36 -1 36 -5 0 -7 -4
-4 -10 3 -5 1 -10 -4 -10 -14 0 -14 13 1 28 9 9 9 12 -3 12 -12 0 -12 2 1 10
13 9 13 10 0 10 -13 0 -13 1 0 10 12 8 12 10 -5 11 l-20 0 20 9 c18 8 18 9 2
9 -10 1 -15 6 -12 11 4 6 11 7 17 4 7 -4 8 -2 4 4 -4 6 -14 8 -22 5 -14 -5
-15 -3 -5 15 7 12 8 22 3 22 -12 0 -10 44 2 53 6 5 0 5 -13 2 -16 -5 -21 -4
-17 4 16 26 15 59 -2 72 -14 11 -15 11 -4 -1 15 -17 16 -30 1 -30 -5 0 -8 4
-4 9 3 5 0 13 -5 16 -8 5 -5 14 6 26 14 16 15 19 3 14 -10 -4 -16 0 -16 9 0 8
4 13 8 10 4 -2 11 0 14 6 4 6 1 9 -7 8 -8 -2 -13 6 -13 20 0 13 -7 27 -14 31
-7 5 -10 14 -7 20 4 6 0 11 -11 12 -16 0 -16 1 2 9 15 7 16 9 4 9 -9 1 -19 10
-22 21 -3 11 -1 18 3 15 18 -11 -4 37 -24 51 l-21 16 23 -5 c23 -5 23 -5 7 13
-10 11 -22 17 -28 13 -6 -3 -7 -1 -3 6 4 6 13 8 19 4 7 -3 5 2 -4 13 -9 10
-15 27 -14 37 2 9 -1 17 -7 17 -7 0 -7 5 1 13 15 19 1 30 -17 14 -11 -8 -14
-8 -9 0 4 6 1 14 -5 16 -10 4 -10 6 0 6 6 1 12 6 12 13 0 6 -3 8 -7 5 -11 -11
-31 13 -26 32 3 11 -4 22 -19 29 -13 7 -16 11 -7 8 12 -3 15 1 12 15 -3 10
-10 16 -16 12 -6 -4 -7 -1 -1 8 12 20 14 40 3 33 -5 -3 -6 -11 -2 -17 4 -7 0
-6 -10 2 -18 15 -23 26 -7 16 6 -3 10 -1 10 4 0 6 -5 11 -11 11 -5 0 -8 4 -4
9 3 5 -2 16 -11 25 -8 9 -12 20 -9 26 3 6 -1 13 -9 16 -9 3 -16 10 -16 16 0 5
6 6 13 2 6 -4 4 2 -6 13 -9 11 -14 24 -10 28 5 5 0 3 -10 -4 -15 -12 -17 -12
-11 3 4 9 1 16 -6 16 -9 0 -9 4 1 17 13 15 12 16 -9 11 -19 -5 -21 -4 -11 8 8
10 8 14 0 14 -6 0 -11 9 -11 19 0 10 -7 22 -16 25 -8 3 -13 10 -10 15 3 5 -2
15 -12 22 -15 13 -16 12 -3 -3 7 -10 9 -18 3 -18 -14 0 -23 28 -11 35 13 9 0
27 -16 21 -9 -3 -12 3 -10 19 1 15 -2 22 -8 18 -6 -4 -8 0 -4 11 4 10 3 15 -3
11 -6 -3 -10 0 -10 9 0 8 -6 17 -12 19 -10 4 -10 8 0 15 11 7 11 10 -3 15 -9
4 -13 3 -10 -3 3 -6 2 -10 -4 -10 -5 0 -12 14 -16 30 -4 17 -13 30 -21 30 -8
0 -14 5 -14 11 0 5 -6 7 -12 3 -8 -5 -7 0 2 11 9 11 10 16 3 11 -8 -4 -13 -2
-13 4 0 6 -5 8 -12 4 -9 -5 -9 -2 1 9 7 9 11 18 7 18 -3 1 -12 2 -18 3 -7 1
-12 7 -10 14 1 7 -5 12 -13 12 -13 0 -14 4 -5 20 6 11 7 20 3 19 -31 -5 -45 2
-40 21 3 11 2 18 -2 16 -4 -3 -11 -2 -16 2 -15 11 -41 47 -29 39 6 -3 11 0 11
7 0 8 -9 12 -21 10 -12 -3 -16 -2 -9 2 8 4 6 11 -8 25 -19 19 -34 26 -25 11 3
-5 -1 -9 -8 -9 -15 0 -10 27 8 40 6 5 1 5 -11 2 -14 -4 -23 -2 -23 5 0 6 -5 8
-12 4 -8 -5 -8 -1 2 12 8 10 11 16 6 12 -11 -9 -31 12 -41 40 -5 19 -9 21 -21
11 -9 -7 -14 -8 -13 -3 5 26 -1 36 -15 25 -12 -10 -14 -9 -9 7 3 14 -2 21 -16
25 -13 3 -21 13 -21 27 0 11 -4 18 -10 15 -6 -3 -10 -1 -10 4 0 6 -7 11 -15
11 -8 0 -14 3 -14 8 3 18 -2 32 -11 32 -5 0 -7 -8 -4 -17 4 -10 -3 -4 -14 13
-11 18 -26 35 -34 40 -10 6 -10 4 1 -9 12 -15 12 -17 -3 -11 -9 3 -16 9 -16
14 0 13 -37 50 -44 43 -4 -4 -4 0 -1 9 4 9 1 19 -6 24 -8 5 -10 3 -5 -7 4 -8
1 -6 -7 3 -8 10 -17 15 -21 11 -4 -4 -4 0 0 10 5 13 1 17 -16 17 -13 0 -19 4
-14 12 5 8 0 9 -15 5 -19 -5 -20 -3 -10 9 7 8 8 14 3 13 -21 -4 -32 2 -37 21
-3 11 -11 20 -19 20 -11 0 -11 -2 0 -9 11 -7 10 -9 -3 -14 -9 -4 -13 -3 -10 2
3 5 1 12 -5 16 -6 4 -8 11 -4 16 3 5 2 8 -3 7 -13 -4 -53 35 -46 45 3 6 1 7
-6 3 -6 -4 -9 -12 -6 -17 4 -5 1 -9 -4 -9 -6 0 -11 7 -11 16 0 11 -5 14 -16
10 -12 -5 -15 -2 -10 9 3 9 2 13 -4 10 -6 -3 -10 -1 -10 6 0 6 -8 9 -19 6 -14
-3 -18 -1 -14 9 3 9 -1 14 -12 14 -9 0 -13 4 -10 10 3 6 -1 7 -9 4 -14 -5 -20
4 -18 27 0 3 -13 4 -29 3 -25 -2 -28 0 -18 12 10 12 9 13 -5 8 -10 -4 -23 2
-35 15 -14 16 -21 18 -24 9 -4 -9 -6 -8 -6 3 -1 11 -9 15 -26 14 -14 -2 -23 1
-19 6 3 5 10 7 15 4 15 -10 10 2 -8 16 -14 12 -16 12 -9 0 6 -9 4 -12 -5 -9
-8 3 -14 11 -14 19 0 9 -10 14 -27 13 -20 -1 -25 3 -21 15 4 9 3 13 -2 9 -4
-4 -14 -3 -22 4 -11 9 -12 7 -6 -8 6 -16 5 -17 -9 -4 -9 8 -14 18 -11 23 2 4
-1 7 -7 7 -6 0 -8 5 -4 13 5 8 2 8 -9 -2 -10 -8 -17 -9 -17 -3 0 6 -13 13 -30
17 -19 4 -30 13 -30 23 0 12 -3 13 -8 5 -7 -12 -51 -15 -50 -3 2 27 -2 32 -19
19 -11 -10 -14 -10 -9 -1 6 11 -5 17 -26 13 -5 0 -8 4 -8 10 0 5 -4 7 -10 4
-5 -3 -10 0 -10 8 0 8 -7 18 -16 21 -12 5 -14 3 -8 -7 5 -7 2 -5 -7 4 -13 14
-19 15 -29 6 -10 -10 -12 -8 -7 6 4 11 3 16 -3 12 -6 -3 -10 -1 -10 6 0 7 -3
9 -6 6 -4 -3 -15 -2 -25 4 -15 8 -18 6 -13 -8 3 -10 -2 -7 -10 7 -8 14 -15 21
-16 16 0 -5 -6 -4 -13 3 -10 8 -17 7 -27 -2 -10 -10 -12 -9 -7 5 5 15 2 16
-19 8 -17 -7 -23 -7 -19 0 3 6 -1 10 -9 10 -9 0 -16 4 -16 9 0 5 -7 12 -16 15
-13 5 -14 3 -6 -7 8 -10 7 -13 -7 -13 -12 0 -17 5 -13 15 3 9 1 12 -6 7 -7 -4
-12 -3 -12 3 0 6 -7 8 -15 5 -12 -5 -14 -2 -8 12 6 17 5 17 -10 5 -13 -11 -17
-11 -17 -1 0 8 -3 10 -7 7 -3 -4 -14 0 -24 9 -13 12 -19 12 -25 3 -4 -7 -3
-10 4 -5 6 3 13 3 16 -2 3 -5 -2 -9 -11 -9 -9 0 -18 8 -20 18 -3 10 -12 20
-20 24 -13 4 -14 3 -3 -10 7 -9 10 -18 6 -22 -3 -3 -6 -1 -6 6 0 7 -7 11 -15
8 -8 -4 -17 -1 -21 5 -5 7 -2 8 6 3 9 -5 11 -4 6 4 -6 9 -11 9 -22 0 -11 -9
-14 -9 -14 1 0 8 -10 11 -29 8 -17 -2 -28 -1 -26 3 6 8 -22 22 -50 24 -11 1
-29 -6 -39 -14 -11 -9 -16 -10 -12 -3 4 6 2 12 -4 12 -6 0 -8 5 -5 10 3 6 -1
10 -10 10 -10 0 -13 -5 -9 -12 5 -9 3 -9 -9 1 -9 7 -28 11 -42 9 -17 -4 -25
-1 -25 9 0 8 5 11 12 7 7 -5 8 -3 3 5 -5 9 -10 10 -18 2 -7 -7 -16 -7 -30 0
-13 8 -17 8 -13 1 3 -6 2 -13 -4 -17 -5 -3 -10 -1 -10 5 0 6 -4 8 -10 5 -5 -3
-10 0 -11 7 0 7 -4 4 -9 -7 -5 -11 -9 -14 -9 -7 -1 7 -6 10 -11 7 -6 -3 -13 0
-16 8 -7 19 -42 29 -51 15 -3 -6 -2 -8 3 -5 6 3 16 1 24 -4 11 -7 8 -8 -10 -5
-14 3 -29 5 -33 5 -5 1 -5 7 -1 14 5 8 2 8 -9 -2 -9 -7 -17 -10 -17 -6 0 4 -8
1 -17 -6 -15 -12 -16 -12 -10 4 5 14 3 16 -12 8 -13 -7 -24 -6 -39 5 -13 9
-22 11 -22 5 0 -6 -5 -11 -11 -11 -5 0 -7 5 -4 10 3 6 1 10 -4 10 -6 0 -11 -5
-11 -12 0 -6 -6 -4 -13 7 -11 14 -16 15 -22 5 -6 -9 -4 -11 6 -5 12 7 12 6 0
-6 -10 -11 -15 -11 -18 -1 -6 15 -33 16 -33 0 0 -6 -6 -4 -13 7 -11 14 -16 15
-22 5 -6 -9 -4 -11 6 -5 12 7 12 6 1 -6 -11 -12 -15 -11 -23 3 -12 21 -39 13
-33 -10 3 -9 -1 -7 -7 5 -11 21 -13 22 -26 5 -8 -9 -12 -11 -8 -4 3 6 1 12 -4
12 -6 0 -11 -5 -11 -11 0 -6 -7 -3 -16 5 -20 20 -25 20 -17 -1 5 -12 3 -14 -8
-7 -21 13 -39 14 -39 1 0 -8 -4 -7 -9 2 -5 7 -14 10 -20 7 -6 -4 -8 -12 -5
-18 4 -7 2 -8 -5 -4 -6 4 -9 12 -6 17 4 5 -3 9 -15 9 -14 0 -19 -4 -14 -12 6
-10 4 -10 -7 0 -7 6 -17 12 -22 12 -4 0 -5 -6 -2 -12 4 -7 -1 -4 -9 6 -9 11
-16 14 -16 7 0 -7 -4 -9 -10 -6 -5 3 -10 1 -10 -4 0 -6 -5 -11 -11 -11 -5 0
-7 5 -3 11 4 7 1 10 -7 7 -8 -3 -25 -1 -38 4 -20 7 -22 6 -13 -5 9 -11 8 -14
-3 -14 -8 0 -15 3 -15 7 0 4 -7 7 -15 7 -8 0 -12 -4 -9 -9 5 -8 -10 -12 -30
-9 -4 1 -15 -4 -24 -11 -9 -8 -13 -8 -9 -2 4 7 0 15 -9 18 -8 3 -13 2 -10 -3
3 -5 -1 -12 -10 -15 -12 -5 -15 -2 -10 11 6 17 5 17 -7 1 -12 -15 -14 -15 -25
0 -10 15 -11 15 -5 -2 4 -13 3 -17 -5 -12 -7 4 -12 3 -12 -3 0 -6 -6 -8 -14
-5 -8 3 -23 1 -33 -4 -13 -8 -23 -6 -37 6 -11 9 -16 11 -12 4 4 -7 1 -15 -8
-18 -9 -3 -13 -11 -10 -16 4 -6 -5 -3 -19 6 -22 15 -26 15 -40 2 -12 -12 -17
-13 -21 -3 -3 7 -8 2 -12 -11 -5 -17 -9 -20 -15 -11 -4 7 -19 13 -33 14 -20 0
-23 -2 -13 -14 10 -12 9 -13 -8 -3 -17 9 -22 7 -33 -11 -7 -12 -11 -15 -9 -6
3 9 -1 16 -9 16 -7 0 -11 -4 -8 -9 3 -4 -3 -11 -13 -14 -10 -3 -27 -10 -38
-16 -18 -10 -19 -9 -6 5 19 24 -2 21 -24 -3 -10 -11 -23 -16 -29 -13 -6 4 -20
6 -31 5 -19 -3 -20 3 -18 190 0 106 2 196 2 201 1 4 317 7 704 7 583 0 706 2
722 14 18 13 19 37 19 600 0 569 -1 586 -20 601 -17 13 -293 14 -2190 15
-2156 0 -2171 0 -2189 -20z m4703 -1575 c-3 -3 -9 2 -12 12 -6 14 -5 15 5 6 7
-7 10 -15 7 -18z m2539 -4011 c-3 -3 -12 -4 -19 -1 -8 3 -5 6 6 6 11 1 17 -2
13 -5z m-12 -62 c-3 -3 -11 0 -18 7 -9 10 -8 11 6 5 10 -3 15 -9 12 -12z
m-359 -890 c-18 -16 -18 -16 -8 4 6 12 10 24 8 26 -1 3 2 2 8 -3 7 -6 4 -15
-8 -27z m-471 -631 c-3 -6 -11 -11 -16 -11 -5 0 -4 6 3 14 14 16 24 13 13 -3z
m-95 -107 c0 -2 -9 -8 -20 -14 -15 -8 -18 -8 -14 3 4 11 34 21 34 11z m-451
-357 c-2 -1 -13 -9 -24 -17 -19 -14 -19 -14 -6 3 7 9 18 17 24 17 6 0 8 -1 6
-3z m-2484 -537 c3 -5 1 -10 -4 -10 -6 0 -11 5 -11 10 0 6 2 10 4 10 3 0 8 -4
11 -10z"/>
<path d="M4170 7469 c0 -5 5 -7 10 -4 6 3 10 8 10 11 0 2 -4 4 -10 4 -5 0 -10
-5 -10 -11z"/>
<path d="M6190 7170 c0 -5 5 -10 11 -10 5 0 7 5 4 10 -3 6 -8 10 -11 10 -2 0
-4 -4 -4 -10z"/>
<path d="M8663 6890 c-76 -17 -112 -67 -133 -185 -22 -127 -25 -138 -43 -149
-15 -9 -22 -7 -37 12 -24 29 -17 80 15 108 24 22 24 27 11 119 -2 17 -5 40 -5
53 -1 30 -19 28 -62 -8 -53 -43 -71 -88 -75 -189 -5 -140 23 -219 93 -258 44
-24 90 -23 135 4 46 27 66 67 89 184 21 105 43 145 73 133 43 -17 43 -116 -1
-153 -15 -14 -27 -27 -26 -30 1 -3 4 -42 8 -86 3 -43 9 -83 11 -87 7 -12 60
18 93 53 67 70 76 283 17 397 -29 55 -106 94 -163 82z"/>
<path d="M8760 6278 c-47 -28 -94 -54 -105 -59 -11 -5 -45 -25 -75 -44 l-55
-34 -90 89 -90 90 0 -118 0 -117 79 -70 80 -70 -177 -3 -177 -2 0 -100 0 -100
350 0 350 0 1 55 c0 30 1 69 1 85 0 62 2 60 -66 60 -60 0 -67 2 -100 35 l-36
35 82 42 c46 24 91 46 101 50 12 5 17 19 18 50 0 24 1 71 1 105 1 35 0 65 -3
67 -2 2 -42 -18 -89 -46z"/>
<path d="M8150 5516 c0 -66 4 -95 13 -98 10 -4 673 -3 687 1 4 1 4 114 1 179
-1 9 -78 12 -351 12 l-350 0 0 -94z"/>
<path d="M7875 5420 c-3 -5 -1 -10 4 -10 6 0 11 5 11 10 0 6 -2 10 -4 10 -3 0
-8 -4 -11 -10z"/>
<path d="M8825 5307 c-12 -6 -84 -11 -181 -12 -90 -1 -175 -7 -195 -14 -86
-28 -120 -111 -114 -282 2 -83 7 -108 29 -153 22 -44 36 -59 72 -76 25 -12 47
-21 49 -19 2 2 6 36 10 74 3 39 9 78 11 87 3 11 -5 23 -21 34 -46 30 -52 122
-9 150 13 9 27 13 32 10 10 -6 32 -82 57 -197 26 -119 62 -164 138 -172 54 -6
113 26 137 74 39 76 28 205 -23 273 l-26 34 29 6 c27 5 30 9 31 48 2 63 0 141
-3 144 -2 1 -12 -3 -23 -9z m-118 -217 c26 -17 41 -42 48 -81 12 -67 -56 -108
-90 -55 -18 27 -55 142 -49 149 8 8 71 -1 91 -13z"/>
<path d="M8807 4663 c-2 -1 -22 -3 -45 -4 l-42 -3 6 -42 c7 -56 -4 -61 -133
-62 l-103 -1 -1 32 c-1 18 0 42 1 55 1 22 -1 23 -72 20 l-73 -3 0 -50 0 -50
-45 -2 c-25 -1 -68 -2 -97 -2 l-51 -1 45 -87 c24 -49 48 -92 53 -97 5 -5 28
-9 52 -10 41 -1 43 -2 43 -31 0 -36 13 -42 80 -39 65 3 65 3 64 12 -1 4 -1 19
0 33 l1 26 130 0 c200 1 243 32 242 170 0 43 -3 87 -6 98 -2 11 -5 25 -5 32
-1 10 -36 15 -44 6z"/>
<path d="M8118 4143 c7 -3 16 -2 19 1 4 3 -2 6 -13 5 -11 0 -14 -3 -6 -6z"/>
<path d="M8484 3872 c-10 -2 -37 -9 -59 -17 -103 -38 -123 -195 -38 -295 l35
-40 -29 2 c-16 1 -33 -1 -39 -4 -5 -4 -9 -44 -9 -90 l1 -83 252 -3 252 -2 1
37 c0 21 1 60 2 86 1 27 -1 54 -5 60 -4 7 -57 11 -145 12 -176 1 -202 9 -217
68 -5 22 -1 33 18 52 25 25 28 25 186 25 l160 0 1 28 c4 153 4 162 -11 163
-34 3 -338 4 -356 1z"/>
<path d="M8629 3256 c-2 -2 -29 -6 -59 -8 -103 -9 -172 -55 -212 -144 -17 -38
-22 -68 -22 -139 0 -49 6 -107 12 -127 36 -104 132 -171 245 -171 181 0 277
108 271 305 -3 93 -16 143 -48 187 -24 32 -86 84 -93 77 -2 -2 -6 -27 -8 -57
-3 -30 -7 -70 -10 -90 -3 -27 1 -41 15 -54 61 -55 19 -164 -64 -169 -5 -1 -9
81 -8 191 1 169 -4 213 -19 199z m-73 -289 c0 -45 -1 -87 -3 -93 -6 -17 -49
-5 -78 22 -25 23 -33 71 -18 109 6 18 83 58 93 49 2 -3 5 -42 6 -87z"/>
<path d="M8587 2594 c-1 -1 -18 -5 -37 -8 -92 -14 -157 -61 -190 -138 -33 -74
-34 -222 -4 -289 46 -99 133 -153 245 -152 176 3 269 112 262 307 -3 106 -25
168 -76 217 -60 57 -68 54 -74 -21 -2 -30 -6 -68 -7 -85 -3 -20 4 -38 19 -57
32 -38 29 -111 -5 -136 -35 -25 -59 -32 -66 -21 -3 5 -5 92 -4 193 l1 184 -31
4 c-16 3 -31 4 -33 2z m-32 -294 c1 -56 -2 -91 -9 -93 -16 -6 -48 8 -73 32
-27 25 -31 86 -9 116 13 18 76 47 85 39 3 -2 5 -44 6 -94z"/>
<path d="M8150 1671 l0 -328 83 0 c45 0 84 4 87 8 3 4 5 53 4 108 l-2 101 26
1 c15 0 134 1 265 1 l237 0 1 64 c0 35 1 78 1 94 0 17 -1 37 -1 45 -1 13 -37
15 -264 15 l-263 0 1 98 c0 53 -1 103 -3 110 -3 8 -30 12 -88 12 l-84 0 0
-329z"/>
<path d="M6343 1145 c0 -8 4 -12 9 -9 5 3 6 10 3 15 -9 13 -12 11 -12 -6z"/>
</g>
</svg>
